<svg height="512pt" viewBox="-84 0 512 512" width="512pt" xmlns="http://www.w3.org/2000/svg"><path d="m246 293.1875v-285.6875h-148.054688v285.6875h-82.828124l156.855468 206.417969 156.851563-206.417969zm0 0" fill="#e2fc85"/><path d="m97.945312 7.5h30v285.6875h-30zm0 0" fill="#6ad34d"/><path d="m45.117188 293.1875h-30l156.855468 206.417969 15-19.742188zm0 0" fill="#6ad34d"/><path d="m274.828125 300.6875h-36.328125v-285.6875h-133.054688v191h-15v-206h163.054688v285.6875h21.328125zm0 0"/><path d="m171.972656 512-171.972656-226.3125h90.445312v-59.6875h15v74.6875h-75.207031l141.734375 186.519531 141.734375-186.519531h-18.878906v-15h49.113281zm0 0"/><path d="m191.972656 300.6875h-15v-15h15zm-25 0h-15v-15h15zm0 0" fill="#fff"/></svg>