<svg height="512pt" viewBox="0 0 512.01505 512" width="512pt" xmlns="http://www.w3.org/2000/svg"><path d="m367.359375 8.539062c-4.101563-.015624-8.203125.183594-12.289063.597657-40.628906 4.34375-77.066406 26.957031-98.984374 61.441406h-.171876c-3.796874-5.84375-8.050781-11.378906-12.714843-16.554687-24.742188-28.683594-60.679688-45.265626-98.558594-45.484376-4.523437 0-8.960937.257813-13.3125.597657-68.949219 6.742187-122.792969 65.367187-122.792969 141.3125 0 206.507812 184.0625 287.660156 234.664063 306.007812 8.109375 2.984375 12.800781 4.351563 12.800781 4.351563s247.464844-70.914063 247.464844-310.359375c0-80.808594-60.925782-141.910157-136.105469-141.910157zm0 0" fill="#ef3a76"/><path d="m503.464844 150.449219c0 239.445312-247.464844 310.359375-247.464844 310.359375s-4.691406-1.367188-12.800781-4.351563c50.601562-18.347656 234.667969-99.5 234.667969-306.007812 0-75.945313-53.847657-134.570313-122.796876-141.3125 4.085938-.414063 8.1875-.613281 12.289063-.597657 75.179687 0 136.105469 61.101563 136.105469 141.910157zm0 0" fill="#bc2b6a"/><path d="m503.464844 392.539062v34.136719c0 4.710938-3.820313 8.53125-8.53125 8.53125h-51.199219c-4.714844 0-8.535156 3.820313-8.535156 8.535157v51.199218c0 4.710938-3.820313 8.53125-8.53125 8.53125h-34.132813c-4.714844 0-8.535156-3.820312-8.535156-8.53125v-51.199218c0-4.714844-3.820312-8.535157-8.535156-8.535157h-51.199219c-4.710937 0-8.53125-3.820312-8.53125-8.53125v-34.136719c0-4.710937 3.820313-8.53125 8.53125-8.53125h51.199219c4.714844 0 8.535156-3.820312 8.535156-8.535156v-51.199218c0-4.710938 3.820312-8.53125 8.535156-8.53125h34.132813c4.710937 0 8.53125 3.820312 8.53125 8.53125v51.199218c0 4.714844 3.820312 8.535156 8.535156 8.535156h51.199219c4.710937 0 8.53125 3.820313 8.53125 8.53125zm0 0" fill="#66993e"/><path d="m477.867188 392.539062v34.136719c0 4.710938-3.820313 8.53125-8.535157 8.53125h-51.199219c-4.710937 0-8.53125 3.820313-8.53125 8.535157v51.199218c0 4.710938-3.820312 8.53125-8.535156 8.53125h-8.53125c-4.714844 0-8.535156-3.820312-8.535156-8.53125v-51.199218c0-4.714844-3.820312-8.535157-8.535156-8.535157h-51.199219c-4.710937 0-8.53125-3.820312-8.53125-8.53125v-34.136719c0-4.710937 3.820313-8.53125 8.53125-8.53125h51.199219c4.714844 0 8.535156-3.820312 8.535156-8.535156v-51.199218c0-4.710938 3.820312-8.53125 8.535156-8.53125h8.53125c4.714844 0 8.535156 3.820312 8.535156 8.53125v51.199218c0 4.714844 3.820313 8.535156 8.53125 8.535156h51.199219c4.714844 0 8.535157 3.820313 8.535157 8.53125zm0 0" fill="#9aca5c"/><path d="m256 469.339844c-.792969 0-1.585938-.109375-2.347656-.332032-2.542969-.726562-253.652344-75.527343-253.652344-318.582031 0-84.34375 63.53125-150.4179685 144.640625-150.4179685 43.796875.4062495 84.925781 21.0976565 111.359375 56.0195315 26.433594-34.921875 67.5625-55.613282 111.359375-56.0195315 81.109375 0 144.640625 66.0742185 144.640625 150.4179685.496094 49.972657-11.269531 99.308594-34.261719 143.683594-1.417969 2.699219-4.167969 4.4375-7.214843 4.558594-3.046876.121093-5.925782-1.390625-7.554688-3.96875-1.628906-2.574219-1.761719-5.828125-.34375-8.527344 21.707031-41.925781 32.800781-88.535156 32.308594-135.746094 0-74.777343-56.039063-133.351562-127.574219-133.351562-42.324219.566406-81.503906 22.464843-104.15625 58.222656-1.703125 2.265625-4.371094 3.601563-7.203125 3.601563s-5.5-1.335938-7.203125-3.601563c-22.652344-35.757813-61.832031-57.65625-104.15625-58.222656-71.535156 0-127.574219 58.574219-127.574219 133.351562 0 217.753907 214.015625 293.390625 238.933594 301.449219 3.730469-1.1875 11.664062-3.851562 22.367188-8.210938 4.363281-1.777343 9.34375.324219 11.121093 4.6875 1.777344 4.367188-.320312 9.347657-4.6875 11.125-16 6.511719-26.042969 9.386719-26.453125 9.53125-.761718.222657-1.554687.332032-2.347656.332032zm0 0"/><path d="m42.667969 158.957031c-4.714844 0-8.535157-3.820312-8.535157-8.53125-.257812-29.058593 10.054688-57.21875 29.015626-79.242187 1.949218-2.492188 5.117187-3.699219 8.230468-3.136719 3.117188.558594 5.664063 2.800781 6.621094 5.816406s.167969 6.3125-2.054688 8.566407c-16.214843 18.917968-25.007812 43.082031-24.746093 67.996093 0 4.710938-3.820313 8.53125-8.53125 8.53125zm0 0"/><path d="m196.265625 66.722656c-1.640625.003906-3.246094-.472656-4.625-1.367187-13.972656-9.15625-30.296875-14.070313-47-14.148438-4.714844 0-8.535156-3.820312-8.535156-8.53125 0-4.714843 3.820312-8.535156 8.535156-8.535156 19.992187.078125 39.53125 5.941406 56.257813 16.886719 3.171874 2.058594 4.613281 5.953125 3.542968 9.578125-1.070312 3.621093-4.394531 6.113281-8.175781 6.117187zm0 0"/><path d="m462.421875 221.875c-.644531 0-1.285156-.070312-1.910156-.214844-2.210938-.503906-4.128907-1.871094-5.328125-3.789062-1.203125-1.921875-1.59375-4.242188-1.082032-6.449219 4.507813-20.019531 6.753907-40.480469 6.699219-60.996094 0-4.714843 3.820313-8.535156 8.53125-8.535156 4.714844 0 8.535157 3.820313 8.535157 8.535156.0625 21.816407-2.328126 43.570313-7.132813 64.851563-.902344 3.863281-4.347656 6.597656-8.3125 6.597656zm0 0"/><path d="m281.601562 401.074219c-4.714843 0-8.535156-3.820313-8.535156-8.535157.027344-28.261718 22.933594-51.171874 51.199219-51.199218 4.714844 0 8.535156 3.820312 8.535156 8.535156 0 4.710938-3.820312 8.53125-8.535156 8.53125-18.851563 0-34.132813 15.285156-34.132813 34.132812 0 4.714844-3.820312 8.535157-8.53125 8.535157zm0 0"/><path d="m426.667969 512.007812h-34.132813c-9.425781 0-17.070312-7.640624-17.070312-17.066406v-51.199218h-51.199219c-9.425781 0-17.066406-7.640626-17.066406-17.066407v-34.136719c0-9.425781 7.640625-17.066406 17.066406-17.066406h51.199219v-51.199218c0-9.425782 7.644531-17.066407 17.070312-17.066407h34.132813c9.425781 0 17.066406 7.640625 17.066406 17.066407v51.199218h51.199219c9.425781 0 17.066406 7.640625 17.066406 17.066406v34.136719c0 9.425781-7.640625 17.066407-17.066406 17.066407h-51.199219v51.199218c0 9.425782-7.640625 17.066406-17.066406 17.066406zm-102.402344-119.46875v34.136719h51.199219c9.425781 0 17.070312 7.640625 17.070312 17.066407v51.199218h34.132813v-51.199218c0-9.425782 7.640625-17.066407 17.066406-17.066407h51.199219v-34.136719h-51.199219c-9.425781 0-17.066406-7.640624-17.066406-17.066406v-51.199218h-34.132813v51.199218c0 9.425782-7.644531 17.066406-17.070312 17.066406zm0 0"/><path d="m25.601562 420.984375c-4.714843 0-8.535156-3.824219-8.535156-8.535156v-34.132813c0-4.714844 3.820313-8.535156 8.535156-8.535156 4.710938 0 8.53125 3.820312 8.53125 8.535156v34.132813c0 4.710937-3.820312 8.535156-8.53125 8.535156zm0 0"/><path d="m42.667969 403.914062h-34.132813c-4.714844 0-8.535156-3.820312-8.535156-8.53125 0-4.714843 3.820312-8.535156 8.535156-8.535156h34.132813c4.710937 0 8.53125 3.820313 8.53125 8.535156 0 4.710938-3.820313 8.53125-8.53125 8.53125zm0 0"/><path d="m128 512.007812c-4.710938 0-8.535156-3.820312-8.535156-8.535156v-34.132812c0-4.710938 3.824218-8.53125 8.535156-8.53125s8.535156 3.820312 8.535156 8.53125v34.132812c0 4.714844-3.824218 8.535156-8.535156 8.535156zm0 0"/><path d="m145.066406 494.941406h-34.132812c-4.714844 0-8.535156-3.820312-8.535156-8.535156 0-4.710938 3.820312-8.53125 8.535156-8.53125h34.132812c4.714844 0 8.535156 3.820312 8.535156 8.53125 0 4.714844-3.820312 8.535156-8.535156 8.535156zm0 0"/></svg>